<svg width="44" height="50" viewBox="0 0 44 50" fill="none" xmlns="http://www.w3.org/2000/svg">
<path d="M21.8751 50C25.3243 50 28.1221 47.2021 28.1221 43.75H15.628C15.628 47.2021 18.4258 50 21.8751 50ZM42.9093 35.3799C41.0225 33.3525 37.4923 30.3027 37.4923 20.3125C37.4923 12.7246 32.1719 6.65039 24.9981 5.16016V3.125C24.9981 1.39941 23.5997 0 21.8751 0C20.1505 0 18.752 1.39941 18.752 3.125V5.16016C11.5782 6.65039 6.25788 12.7246 6.25788 20.3125C6.25788 30.3027 2.72761 33.3525 0.840888 35.3799C0.25495 36.0098 -0.00481529 36.7627 6.75184e-05 37.5C0.0108097 39.1016 1.26765 40.625 3.13483 40.625H40.6153C42.4825 40.625 43.7403 39.1016 43.7501 37.5C43.755 36.7627 43.4952 36.0088 42.9093 35.3799Z" fill="#80878E"/>
</svg>
