<svg width="57" height="50" viewBox="0 0 57 50" fill="none" xmlns="http://www.w3.org/2000/svg">
<path d="M51.5742 29.4257L56.1907 9.11318C56.524 7.64658 55.4093 6.25 53.9053 6.25H15.5477L14.6525 1.87402C14.4295 0.783301 13.4697 0 12.3563 0H2.34375C1.04932 0 0 1.04932 0 2.34375V3.90625C0 5.20068 1.04932 6.25 2.34375 6.25H9.16826L16.0284 39.7886C14.3872 40.7324 13.2812 42.5021 13.2812 44.5312C13.2812 47.5516 15.7297 50 18.75 50C21.7703 50 24.2188 47.5516 24.2188 44.5312C24.2188 43.0006 23.5892 41.6177 22.5758 40.625H43.0491C42.0358 41.6177 41.4062 43.0006 41.4062 44.5312C41.4062 47.5516 43.8547 50 46.875 50C49.8953 50 52.3438 47.5516 52.3438 44.5312C52.3438 42.366 51.0852 40.4949 49.2599 39.6089L49.7986 37.2382C50.1319 35.7716 49.0172 34.375 47.5132 34.375H21.3005L20.6613 31.25H49.2888C50.3831 31.25 51.3317 30.4928 51.5742 29.4257Z" fill="#80878E"/>
</svg>
