<?xml version="1.0" encoding="UTF-8" standalone="no"?> 
<svg xmlns="http://www.w3.org/2000/svg" viewBox="0 0 48 48"><g id="Microwave">
<path d="M42,6H6a5.006,5.006,0,0,0-5,5V34a5.006,5.006,0,0,0,5,5v1a2,2,0,0,0,2,2h3a2,2,0,0,0,2-2V39H35v1a2,2,0,0,0,2,2h3a2,2,0,0,0,2-2V39a5.006,5.006,0,0,0,5-5V11A5.006,5.006,0,0,0,42,6ZM11,40H8V39h3Zm29,0H37V39h3Zm5-6a3,3,0,0,1-3,3H6a3,3,0,0,1-3-3V11A3,3,0,0,1,6,8H42a3,3,0,0,1,3,3Z" style="fill: #8E8E90;"/>
<path d="M31,10H8a3,3,0,0,0-3,3V32a3,3,0,0,0,3,3H31a3,3,0,0,0,3-3V13A3,3,0,0,0,31,10Zm1,22a1,1,0,0,1-1,1H8a1,1,0,0,1-1-1V13a1,1,0,0,1,1-1H31a1,1,0,0,1,1,1Z" style="fill: #8E8E90;"/>
<path d="M16.707,18.293a1,1,0,0,0-1.414,1.414l6,6a1,1,0,0,0,1.414-1.414Z" style="fill: #8E8E90;"/>
<path d="M23.707,19.293a1,1,0,0,0-1.414,1.414l3,3a1,1,0,0,0,1.414-1.414Z" style="fill: #8E8E90;"/>
<path d="M13.707,21.293a1,1,0,0,0-1.414,1.414l2,2a1,1,0,0,0,1.414-1.414Z" style="fill: #8E8E90;"/>
<path d="M41,10H38a2,2,0,0,0-2,2v2a2,2,0,0,0,2,2h3a2,2,0,0,0,2-2V12A2,2,0,0,0,41,10Zm0,4H38V12h3Z" style="fill: #8E8E90;"/>
<path d="M39.5,28A3.5,3.5,0,1,0,43,31.5,3.5,3.5,0,0,0,39.5,28Zm0,5A1.5,1.5,0,1,1,41,31.5,1.5,1.5,0,0,1,39.5,33Z" style="fill: #8E8E90;"/>
<circle cx="38" cy="18" r="1" style="fill: #8E8E90;"/>
<circle cx="41" cy="18" r="1" style="fill: #8E8E90;"/>
<circle cx="38" cy="21" r="1" style="fill: #8E8E90;"/>
<circle cx="41" cy="21" r="1" style="fill: #8E8E90;"/>
<circle cx="38" cy="24" r="1" style="fill: #8E8E90;"/>
<circle cx="41" cy="24" r="1"/></g></svg>