<?xml version="1.0" encoding="iso-8859-1"?>
<!-- Generator: Adobe Illustrator 21.0.0, SVG Export Plug-In . SVG Version: 6.00 Build 0)  -->
<svg version="1.1" id="Layer_1" xmlns="http://www.w3.org/2000/svg" xmlns:xlink="http://www.w3.org/1999/xlink" x="0px" y="0px"
	 viewBox="0 0 100.354 100.352" style="enable-background:new 0 0 100.354 100.352;" xml:space="preserve">
<path d="M88.262,44.629c0-18.675-16.808-33.869-37.467-33.869c-20.655,0-37.46,15.193-37.46,33.869
	c0,7.276,2.502,14.177,7.229,19.997c-0.919,1.387-1.458,3.047-1.458,4.832c0,4.834,3.934,8.767,8.77,8.767h1.572
	c2.442,0,4.652-1.007,6.242-2.625c1.009,0.404,2.044,0.766,3.103,1.09c-0.185,0.807-0.292,1.643-0.292,2.506
	c0,6.199,5.047,11.242,11.25,11.242h2.093c6.2,0,11.244-5.043,11.244-11.242c0-0.851-0.103-1.677-0.284-2.475
	c1.235-0.379,2.444-0.819,3.62-1.309c1.603,1.726,3.884,2.813,6.419,2.813h1.558c4.835,0,8.77-3.933,8.77-8.767
	c0-1.981-0.668-3.804-1.779-5.274C85.89,58.45,88.262,51.717,88.262,44.629z M29.448,75.224h-1.572c-3.182,0-5.77-2.587-5.77-5.767
	c0-3.183,2.588-5.771,5.77-5.771h1.572c3.178,0,5.763,2.589,5.763,5.771c0,1.21-0.376,2.333-1.015,3.262
	c-0.11,0.104-0.199,0.231-0.276,0.369C32.863,74.39,31.252,75.224,29.448,75.224z M51.845,87.437h-2.093
	c-4.549,0-8.25-3.697-8.25-8.242c0-4.542,3.701-8.237,8.25-8.237h2.093c4.546,0,8.244,3.695,8.244,8.237
	C60.089,83.74,56.391,87.437,51.845,87.437z M61.758,73.9c-1.897-3.533-5.627-5.943-9.913-5.943h-2.093
	c-4.278,0-8.004,2.398-9.906,5.918c-0.822-0.247-1.627-0.517-2.417-0.816c0.498-1.1,0.783-2.317,0.783-3.602
	c0-4.836-3.931-8.771-8.763-8.771h-1.572c-1.954,0-3.754,0.65-5.213,1.734c-4.129-5.215-6.328-11.341-6.328-17.792
	c0-17.021,15.458-30.869,34.46-30.869c19.005,0,34.467,13.848,34.467,30.869c0,6.319-2.116,12.326-6.086,17.48
	c-1.375-0.896-3.012-1.423-4.772-1.423h-1.558c-4.836,0-8.77,3.935-8.77,8.771c0,1.204,0.245,2.352,0.686,3.397
	C63.783,73.244,62.779,73.592,61.758,73.9z M74.403,75.224h-1.558c-3.182,0-5.77-2.587-5.77-5.767c0-3.183,2.588-5.771,5.77-5.771
	h1.558c1.565,0,2.984,0.629,4.025,1.644c0.013,0.011,0.022,0.025,0.035,0.036c0.004,0.003,0.009,0.004,0.013,0.008
	c1.047,1.045,1.696,2.49,1.696,4.083C80.173,72.637,77.584,75.224,74.403,75.224z" style="fill: #8E8E90;"/>
</svg>
