<?xml version="1.0" encoding="utf-8"?>
<!-- Generator: Adobe Illustrator 16.0.0, SVG Export Plug-In . SVG Version: 6.00 Build 0)  -->
<!DOCTYPE svg PUBLIC "-//W3C//DTD SVG 1.0//EN" "http://www.w3.org/TR/2001/REC-SVG-20010904/DTD/svg10.dtd">
<svg version="1.0" id="Layer_1" xmlns="http://www.w3.org/2000/svg" xmlns:xlink="http://www.w3.org/1999/xlink" x="0px" y="0px"
	 width="100px" height="100px" viewBox="0 0 100 100" enable-background="new 0 0 100 100" xml:space="preserve">
<polygon points="76.094,66.667 23.905,66.667 10,52.761 10,90 90,90 90,52.761 " style="fill: grey;"/>
<path d="M16.667,10v40l10,10h46.667l10-10V10H16.667z M51.667,23.333h16.666v5H51.667V23.333z M39.167,48.333v3.333h-5v-3.333H27.5
	v-5h11.667c1.38,0,2.5-1.12,2.5-2.5c0-1.38-1.12-2.5-2.5-2.5h-5c-4.141,0-7.5-3.359-7.5-7.5c0-4.144,3.359-7.5,7.5-7.5V20h5v3.333
	h6.667v5H34.167c-1.38,0-2.5,1.12-2.5,2.5c0,1.38,1.12,2.5,2.5,2.5h5c4.141,0,7.5,3.359,7.5,7.5
	C46.667,44.977,43.307,48.333,39.167,48.333z M73.333,48.333H51.667v-5h21.666V48.333z M73.333,38.333H51.667v-5h21.666V38.333z" style="fill: grey;"/>
</svg>
