<svg xmlns="http://www.w3.org/2000/svg" viewBox="0 0 64 64"><g id="Layer_50" data-name="Layer 50">
<path d="M32,10.5A21.52,21.52,0,0,0,10.5,32c1.18,28.52,41.82,28.51,43,0A21.52,21.52,0,0,0,32,10.5Zm0,40A18.52,18.52,0,0,1,13.5,32c1-24.54,36-24.54,37,0A18.52,18.52,0,0,1,32,50.5Z" style="fill: #8E8E90;"/>
<path d="M43.48,27.24c-6.29.2-6.29,9.32,0,9.52C49.77,36.56,49.77,27.44,43.48,27.24Zm0,6.52a1.76,1.76,0,0,1,0-3.52A1.76,1.76,0,0,1,43.48,33.76Z" style="fill: #8E8E90;"/>
<path d="M32,27.24c-6.29.2-6.29,9.32,0,9.52C38.29,36.56,38.29,27.44,32,27.24Zm0,6.52a1.76,1.76,0,0,1,0-3.52A1.76,1.76,0,0,1,32,33.76Z" style="fill: #8E8E90;"/>
<path d="M20.52,27.24c-6.29.2-6.29,9.32,0,9.52C26.81,36.56,26.81,27.44,20.52,27.24Zm0,6.52a1.76,1.76,0,0,1,0-3.52A1.76,1.76,0,0,1,20.52,33.76Z" style="fill: #8E8E90;"/></g></svg>