<?xml version="1.0" encoding="UTF-8" standalone="no"?> 
<svg xmlns="http://www.w3.org/2000/svg" viewBox="0 0 64 64">
<title>1</title><g id="Layer_17" data-name="Layer 17">
<path d="M33,13.23H46.8V29.81l-3.51-3.51a1,1,0,0,0-1.41,1.41l5.21,5.21a1,1,0,0,0,.68.3h0a1,1,0,0,0,.38-.08h0a1,1,0,0,0,.3-.2l5.22-5.22a1,1,0,0,0-1.41-1.41L48.8,29.81V12.23a1,1,0,0,0-1-1H33a1,1,0,0,0,0,2Z"  style="stroke: #fff;"/>
<path d="M33,50.77H19.26V34.19l3.51,3.51a1,1,0,0,0,1.41-1.41L19,31.08a1,1,0,0,0-.68-.3h0a1,1,0,0,0-.39.08h0a1,1,0,0,0-.3.2l-5.22,5.22a1,1,0,0,0,1.41,1.41l3.52-3.52V51.77a1,1,0,0,0,1,1H33a1,1,0,0,0,0-2Z"  style="stroke: #fff;"/>
<path d="M29.57,28.89V16.72L31.83,19a1,1,0,0,0,1.41-1.41L19,3.29a1,1,0,0,0-1.41,0L14.5,6.34V4.4a1,1,0,0,0-1-1h-4a1,1,0,0,0-1,1v7.91L7.24,13.6h0l-4,4A1,1,0,0,0,4.69,19l2.26-2.26V28.89a1,1,0,0,0,1,1H28.57A1,1,0,0,0,29.57,28.89ZM10.54,5.4h2V8.34l-2,2ZM8.95,27.89V14.72l5.26-5.26h0l4.05-4.05,9.31,9.31V27.89Z"  style="stroke: #fff;"/>
<path d="M47.83,43.46a2,2,0,0,1,2.05,1.84,1.06,1.06,0,0,0,1.14.94,1,1,0,0,0,1.14-.93,3.8,3.8,0,0,0-2.89-3.5l-.3-.09v-.66a.85.85,0,0,0-.31-.64,1.27,1.27,0,0,0-.83-.3,1,1,0,0,0-1.14.93v.35l0,.31-.29.09a3.79,3.79,0,0,0-2.88,3.46c0,2,1.93,3.7,4.32,3.72a1.84,1.84,0,1,1-2.07,1.82,1.06,1.06,0,0,0-1.14-.94,1,1,0,0,0-1.14.93,3.81,3.81,0,0,0,2.87,3.5l.29.1V55a1.05,1.05,0,0,0,1.13.94h0A1,1,0,0,0,48.89,55V54.7l0-.31.29-.09a3.79,3.79,0,0,0,2.91-3.47c0-2-1.93-3.7-4.32-3.72a1.84,1.84,0,1,1,0-3.66Z"  style="stroke: #fff;"/>
<path d="M57.19,38.86A13.24,13.24,0,0,0,47.87,35H47.8A13.12,13.12,0,0,0,34.59,47.95a12.79,12.79,0,0,0,3.83,9.21A13.24,13.24,0,0,0,47.74,61h.07A13.12,13.12,0,0,0,61,48.07,12.79,12.79,0,0,0,57.19,38.86ZM47.8,59h-.06a11.25,11.25,0,0,1-7.92-3.26A10.81,10.81,0,0,1,36.59,48,11.12,11.12,0,0,1,47.8,37h.06a11.25,11.25,0,0,1,7.92,3.26A10.81,10.81,0,0,1,59,48.06,11.12,11.12,0,0,1,47.8,59Z"  style="stroke: #fff;"/>
</g></svg>